<?xml version="1.0" encoding="UTF-8"?>
<svg width="808px" height="1183px" viewBox="0 0 808 1183" version="1.1" xmlns="http://www.w3.org/2000/svg" xmlns:xlink="http://www.w3.org/1999/xlink">
    <!-- Generator: Sketch 3.6.1 (26313) - http://www.bohemiancoding.com/sketch -->
    <title>OSD Symbol</title>
    <desc>Created with Sketch.</desc>
    <defs></defs>
    <g id="Page-1" stroke="none" stroke-width="1" fill="none" fill-rule="evenodd">
        <g id="OSD-symbol-Copy" transform="translate(-875.000000, -439.000000)">
            <g id="osd-logo-(transparent)">
                <path d="M1054.27588,552.146297 L1150.76447,504.841997 L1198.08857,592.354951 L1054.27588,552.146297 Z" id="XMLID_5_" fill="#E6563F"></path>
                <path d="M1159.44056,504.841997 L1252.24838,487.234286 L1205.97592,583.682497 L1159.44056,504.841997 Z" id="XMLID_6_" fill="#F1AA4E"></path>
                <path d="M1259.87282,490.913509 L1598.24017,667.779029 L1403.94843,504.841997 L1259.87282,490.913509 Z" id="XMLID_7_" fill="#F3EFD9"></path>
                <path d="M1252.24838,504.841997 L1299.8354,623.891151 C1300.09831,625.993564 1591.93029,671.983856 1591.93029,671.983856 C1577.20723,662.785798 1258.55826,496.169542 1252.24838,504.841997 L1252.24838,504.841997 Z" id="XMLID_8_" fill="#38B3C2"></path>
                <path d="M1206.50175,595.771373 L1284.58652,614.693093 L1245.67559,512.200444 L1206.50175,595.771373 Z" id="XMLID_12_" fill="#798E8F"></path>
                <path d="M974.876549,629.935589 L1051.12094,559.504743 L1181.78805,592.354951 L974.876549,629.935589 Z" id="XMLID_13_" fill="#38B3C2"></path>
                <path d="M914.932683,769.220472 L960.942229,648.331706 L1063.47779,872.764327 L914.932683,769.220472 Z" id="XMLID_20_" fill="#E6563D"></path>
                <path d="M922.820034,882.750791 L914.932683,778.41853 L1054.27588,872.764327 L922.820034,882.750791 Z" id="XMLID_21_" fill="#798F90"></path>
                <path d="M930.707385,891.948849 L1000.37898,1038.59218 L1110.80189,992.601886 L930.707385,891.948849 Z" id="XMLID_23_" fill="#38B3C2"></path>
                <path d="M1003.79683,1042.5342 L1117.37468,995.229903 L1123.42165,1148.96888 L1003.79683,1042.5342 Z" id="XMLID_24_" fill="#F1AA4E"></path>
                <path d="M1153.39359,1036.22696 L1128.67989,1148.96888 L1163.38423,1102.45298 L1153.39359,1036.22696 Z" id="XMLID_25_" fill="#F3EFD9"></path>
                <path d="M1007.74051,1054.36028 L1076.09755,1205.99684 L1123.42165,1152.9109 L1007.74051,1054.36028 Z" id="XMLID_29_" fill="#F3EFD9"></path>
                <path d="M1079.25249,1210.72727 L1128.67989,1153.69931 L1120.79254,1319.78996 L1079.25249,1210.72727 Z" id="XMLID_30_" fill="#E6563F"></path>
                <path d="M1133.93812,1154.48771 L1126.05077,1312.69431 L1179.42184,1202.31761 L1133.93812,1154.48771 Z" id="XMLID_31_" fill="#38B3C2"></path>
                <path d="M1133.93812,1148.96888 L1179.42184,1193.64516 L1165.22461,1106.92061 L1133.93812,1148.96888 Z" id="XMLID_32_" fill="#E6563F"></path>
                <path d="M1360.83091,1251.46153 L1426.29592,1319.78996 L1370.03282,1199.6896 L1360.83091,1251.46153 Z" id="XMLID_33_" fill="#F1AA4E"></path>
                <path d="M1361.09382,1257.24316 L1354.25812,1291.14458 L1419.72313,1319.78996 L1361.09382,1257.24316 Z" id="XMLID_34_" fill="#E6563F"></path>
                <path d="M1126.05077,1319.78996 L1197.03693,1319.78996 L1190.72705,1276.95329 L1126.05077,1319.78996 Z" id="XMLID_35_" fill="#F1AA4E"></path>
                <path d="M1350.05153,1318.21315 L1411.57287,1318.21315 L1353.99521,1293.50979 L1350.05153,1318.21315 Z" id="XMLID_37_" fill="#798E8F"></path>
                <path d="M1372.66194,1191.80555 L1431.02833,1319.78996 L1457.3195,1228.33498 L1372.66194,1191.80555 Z" id="XMLID_38_" fill="#F3EFD9"></path>
                <path d="M1419.72313,959.751678 L1461.789,1223.86735 L1499.38537,1130.04716 L1419.72313,959.751678 Z" id="XMLID_40_" fill="#E6563F"></path>
                <path d="M1461.26318,948.451207 L1503.85487,1124.00272 L1582.72838,979.987406 L1461.26318,948.451207 Z" id="XMLID_41_" fill="#F1AA4E"></path>
                <path d="M1461.789,940.567157 L1583.51711,975.519778 L1521.99578,794.18663 L1461.789,940.567157 Z" id="XMLID_44_" fill="#798E8F"></path>
                <path d="M1526.20236,794.18663 L1588.77535,974.20577 L1633.47033,879.597171 L1526.20236,794.18663 Z" id="XMLID_45_" fill="#38B3C2"></path>
                <path d="M1530.93477,787.616588 L1604.55005,674.611872 L1628.2121,866.719889 L1530.93477,787.616588 Z" id="XMLID_46_" fill="#798E8F"></path>
                <path d="M1426.29592,514.82846 L1594.03358,654.113343 L1526.20236,569.491207 L1426.29592,514.82846 Z" id="XMLID_47_" fill="#F1AA4E"></path>
                <path d="M1609.80828,681.181914 L1633.47033,857.259029 L1640.56895,784.200166 L1609.80828,681.181914 Z" id="XMLID_48_" fill="#38B3C2"></path>
                <path d="M1412.88743,1384.17637 L1137.35597,1384.17637 C1123.94748,1384.17637 1112.90519,1373.1387 1112.90519,1359.73581 L1112.90519,1359.73581 C1112.90519,1346.33293 1123.94748,1335.29526 1137.35597,1335.29526 L1412.88743,1335.29526 C1426.29592,1335.29526 1437.33821,1346.33293 1437.33821,1359.73581 L1437.33821,1359.73581 C1437.60112,1373.1387 1426.55883,1384.17637 1412.88743,1384.17637 L1412.88743,1384.17637 Z" id="XMLID_28_" fill="#3A2F2C"></path>
                <path d="M1395.27234,1449.35118 L1154.44523,1449.35118 C1141.03674,1449.35118 1129.99445,1438.31351 1129.99445,1424.91062 L1129.99445,1424.91062 C1129.99445,1411.50774 1141.03674,1400.47007 1154.44523,1400.47007 L1395.27234,1400.47007 C1408.68084,1400.47007 1419.72313,1411.50774 1419.72313,1424.91062 L1419.72313,1424.91062 C1419.72313,1438.31351 1408.68084,1449.35118 1395.27234,1449.35118 L1395.27234,1449.35118 Z" id="XMLID_49_" fill="#3A2F2C"></path>
                <path d="M1372.66194,1516.1028 L1178.10729,1516.1028 C1164.43588,1516.1028 1153.39359,1505.06513 1153.39359,1491.39945 L1153.39359,1491.39945 C1153.39359,1477.73376 1164.43588,1466.69609 1178.10729,1466.69609 L1372.66194,1466.69609 C1386.33334,1466.69609 1397.37564,1477.73376 1397.37564,1491.39945 L1397.37564,1491.39945 C1397.37564,1505.06513 1386.33334,1516.1028 1372.66194,1516.1028 L1372.66194,1516.1028 Z" id="XMLID_50_" fill="#3A2F2C"></path>
                <path d="M1202.29516,1531.8709 C1232.53001,1591.00128 1320.0796,1597.57132 1350.31444,1531.8709 C1349.52571,1530.55689 1202.29516,1531.8709 1202.29516,1531.8709 L1202.29516,1531.8709 Z" id="XMLID_51_" fill="#3A2F2C"></path>
                <path d="M1121.84418,993.653093 L1151.81612,1021.77287 L1125.52495,1143.71284 L1121.84418,993.653093 Z" id="XMLID_2_" fill="#E6563F"></path>
                <path d="M1133.93812,1308.75229 L1181.78805,1213.35528 L1190.72705,1271.69725 L1133.93812,1308.75229 Z" id="XMLID_65_" fill="#E6563F"></path>
                <path d="M1372.66194,1185.23551 L1453.11291,1224.39295 L1383.96714,1104.8182 L1372.66194,1185.23551 Z" id="XMLID_66_" fill="#E6563F"></path>
                <path d="M1066.10691,885.378807 L930.707385,886.167212 L1146.03206,1001.79994 L1125.26204,971.577753 C1109.22442,955.021248 1096.07884,936.099528 1086.35111,915.075395 L1066.10691,885.378807 L1066.10691,885.378807 Z" id="Shape" fill="#F1AA4E"></path>
                <path d="M1594.03358,678.291096 L1348.47406,643.338474 C1391.85449,661.471789 1427.61048,694.321997 1449.69506,735.581859 L1522.25869,790.244605 L1594.03358,678.291096 L1594.03358,678.291096 Z" id="Shape" fill="#F3EFD9"></path>
                <path d="M1285.90108,628.358779 L1287.47855,627.307573 L1195.45946,601.027406 L1157.33726,662.522996 C1189.6754,640.710458 1228.58633,627.833176 1270.6522,627.833176 C1275.64752,627.833176 1280.90576,628.095978 1285.90108,628.358779 L1285.90108,628.358779 Z" id="Shape" fill="#F1AA4E"></path>
                <path d="M1143.40294,672.772261 L1189.14958,597.610985 L971.458697,639.659251 L1084.51072,750.298752 C1097.65631,719.813759 1117.90051,693.270791 1143.40294,672.772261 L1143.40294,672.772261 Z" id="Shape" fill="#798F90"></path>
                <path d="M1081.09287,758.971207 L966.989198,644.389681 L1073.20552,876.443551 C1069.78767,861.726657 1067.94729,846.221359 1067.94729,830.453259 C1067.94729,805.2243 1072.6797,781.046546 1081.09287,758.971207 L1081.09287,758.971207 Z" id="Shape" fill="#F3EFD9"></path>
                <g id="Group" transform="translate(1387.206695, 750.646849)">
                    <path d="M122.695144,39.597756 L69.8498944,0.440308052 C76.9485101,16.9968129 81.9438322,34.6045244 84.3100374,53.2634426 L122.695144,39.597756 L122.695144,39.597756 Z" id="Shape" fill="#798E8F"></path>
                    <path d="M15.4271745,233.545384 L0.178296434,343.922083 L70.1128061,473.220502 L27.2582006,222.507714 C23.3145252,226.449739 19.3708498,230.128963 15.4271745,233.545384 L15.4271745,233.545384 Z" id="Shape" fill="#38B3C2"></path>
                    <path d="M63.8029255,172.312597 L66.6949541,188.6063 L130.582495,43.539781 L85.0987725,59.8334842 C85.6245959,66.4035258 86.1504192,73.2363691 86.1504192,79.8064107 C86.1504192,113.182222 78.0001568,144.718422 63.8029255,172.312597 L63.8029255,172.312597 Z" id="Shape" fill="#38B3C2"></path>
                    <path d="M99.8218272,330.782 L57.7559567,183.087465 C56.7043099,184.927076 55.6526631,186.766688 54.3381047,188.6063 L41.9812552,209.10483 L99.8218272,330.782 L99.8218272,330.782 Z" id="Shape" fill="#F3EFD9"></path>
                </g>
                <path d="M1270.91511,638.082441 C1164.69879,638.082441 1078.46375,724.281387 1078.46375,830.453259 C1078.46375,894.051262 1109.22442,950.290818 1156.81144,985.506241 L1205.71301,1319.78996 L1223.3281,1319.78996 L1179.68476,984.455035 L1218.59569,910.344965 C1192.30452,893.262857 1175.21526,863.829071 1175.21526,830.453259 C1175.21526,777.892926 1218.06986,735.056255 1270.6522,735.056255 C1323.23454,735.056255 1366.08914,777.892926 1366.08914,830.453259 C1366.08914,862.515062 1350.31444,890.897642 1325.86366,908.242552 L1365.82623,985.506241 L1324.5491,1319.78996 L1345.58203,1320.05276 L1387.12208,985.506241 C1433.13163,950.290818 1463.36647,893.000055 1463.36647,830.453259 C1463.36647,724.281387 1377.13144,638.082441 1270.91511,638.082441 L1270.91511,638.082441 Z" id="Shape" fill="#F3EFD9"></path>
            </g>
        </g>
    </g>
</svg>