<?xml version="1.0" encoding="UTF-8"?>
<svg width="1078px" height="1077px" viewBox="0 0 1078 1077" version="1.1" xmlns="http://www.w3.org/2000/svg" xmlns:xlink="http://www.w3.org/1999/xlink">
    <!-- Generator: Sketch 3.6.1 (26313) - http://www.bohemiancoding.com/sketch -->
    <title>OSD symbol</title>
    <desc>Created with Sketch.</desc>
    <defs></defs>
    <g id="Page-1" stroke="none" stroke-width="1" fill="none" fill-rule="evenodd">
        <g id="OSD-symbol" transform="translate(-228.000000, -64.000000)">
            <ellipse id="Oval-1" stroke="#979797" fill="#55443E" cx="767.181818" cy="602.413315" rx="537.818182" ry="537.586685"></ellipse>
            <g id="osd-logo-(transparent)">
                <path d="M634.309091,332.196949 L692.361818,303.736477 L720.834545,356.38835 L634.309091,332.196949 Z" id="XMLID_5_" fill="#E6563F"></path>
                <path d="M697.581818,303.736477 L753.42,293.142857 L725.58,351.170596 L697.581818,303.736477 Z" id="XMLID_6_" fill="#F1AA4E"></path>
                <path d="M758.007273,295.356449 L961.587273,401.76699 L844.690909,303.736477 L758.007273,295.356449 Z" id="XMLID_7_" fill="#F3EFD9"></path>
                <path d="M753.42,303.736477 L782.050909,375.361997 C782.209091,376.626907 957.790909,404.29681 957.790909,404.29681 C948.932727,398.762829 757.216364,298.518724 753.42,303.736477 L753.42,303.736477 Z" id="XMLID_8_" fill="#38B3C2"></path>
                <path d="M725.896364,358.443828 L772.876364,369.828017 L749.465455,308.163662 L725.896364,358.443828 Z" id="XMLID_12_" fill="#798E8F"></path>
                <path d="M586.538182,378.998613 L632.410909,336.624133 L711.027273,356.38835 L586.538182,378.998613 Z" id="XMLID_13_" fill="#38B3C2"></path>
                <path d="M550.472727,462.79889 L578.154545,390.066574 L639.845455,525.0957 L550.472727,462.79889 Z" id="XMLID_20_" fill="#E6563D"></path>
                <path d="M555.218182,531.104022 L550.472727,468.332871 L634.309091,525.0957 L555.218182,531.104022 Z" id="XMLID_21_" fill="#798F90"></path>
                <path d="M559.963636,536.638003 L601.881818,624.865465 L668.318182,597.195562 L559.963636,536.638003 Z" id="XMLID_23_" fill="#38B3C2"></path>
                <path d="M603.938182,627.237171 L672.272727,598.776699 L675.910909,691.273232 L603.938182,627.237171 Z" id="XMLID_24_" fill="#F1AA4E"></path>
                <path d="M693.943636,623.442441 L679.074545,691.273232 L699.954545,663.287101 L693.943636,623.442441 Z" id="XMLID_25_" fill="#F3EFD9"></path>
                <path d="M606.310909,634.352288 L647.438182,725.583911 L675.910909,693.644938 L606.310909,634.352288 Z" id="XMLID_29_" fill="#F3EFD9"></path>
                <path d="M649.336364,728.429958 L679.074545,694.119279 L674.329091,794.047157 L649.336364,728.429958 Z" id="XMLID_30_" fill="#E6563F"></path>
                <path d="M682.238182,694.59362 L677.492727,789.778086 L709.603636,723.370319 L682.238182,694.59362 Z" id="XMLID_31_" fill="#38B3C2"></path>
                <path d="M682.238182,691.273232 L709.603636,718.152566 L701.061818,665.975035 L682.238182,691.273232 Z" id="XMLID_32_" fill="#E6563F"></path>
                <path d="M818.749091,752.937587 L858.136364,794.047157 L824.285455,721.789182 L818.749091,752.937587 Z" id="XMLID_33_" fill="#F1AA4E"></path>
                <path d="M818.907273,756.416089 L814.794545,776.81276 L854.181818,794.047157 L818.907273,756.416089 Z" id="XMLID_34_" fill="#E6563F"></path>
                <path d="M677.492727,794.047157 L720.201818,794.047157 L716.405455,768.274619 L677.492727,794.047157 Z" id="XMLID_35_" fill="#F1AA4E"></path>
                <path d="M812.263636,793.098474 L849.278182,793.098474 L814.636364,778.235784 L812.263636,793.098474 Z" id="XMLID_37_" fill="#798E8F"></path>
                <path d="M825.867273,717.04577 L860.983636,794.047157 L876.801818,739.023578 L825.867273,717.04577 Z" id="XMLID_38_" fill="#F3EFD9"></path>
                <path d="M854.181818,577.431345 L879.490909,736.335645 L902.110909,679.889043 L854.181818,577.431345 Z" id="XMLID_40_" fill="#E6563F"></path>
                <path d="M879.174545,570.632455 L904.8,676.252427 L952.254545,589.606103 L879.174545,570.632455 Z" id="XMLID_41_" fill="#F1AA4E"></path>
                <path d="M879.490909,565.889043 L952.729091,586.918169 L915.714545,477.819695 L879.490909,565.889043 Z" id="XMLID_44_" fill="#798E8F"></path>
                <path d="M918.245455,477.819695 L955.892727,586.127601 L982.783636,529.206657 L918.245455,477.819695 Z" id="XMLID_45_" fill="#38B3C2"></path>
                <path d="M921.092727,473.866852 L965.383636,405.877947 L979.62,521.459085 L921.092727,473.866852 Z" id="XMLID_46_" fill="#798E8F"></path>
                <path d="M858.136364,309.744799 L959.056364,393.545076 L918.245455,342.632455 L858.136364,309.744799 Z" id="XMLID_47_" fill="#F1AA4E"></path>
                <path d="M968.547273,409.830791 L982.783636,515.76699 L987.054545,471.811373 L968.547273,409.830791 Z" id="XMLID_48_" fill="#38B3C2"></path>
                <path d="M850.069091,832.785021 L684.294545,832.785021 C676.227273,832.785021 669.583636,826.144244 669.583636,818.080444 L669.583636,818.080444 C669.583636,810.016644 676.227273,803.375867 684.294545,803.375867 L850.069091,803.375867 C858.136364,803.375867 864.78,810.016644 864.78,818.080444 L864.78,818.080444 C864.938182,826.144244 858.294545,832.785021 850.069091,832.785021 L850.069091,832.785021 Z" id="XMLID_28_" fill="#3A2F2C"></path>
                <path d="M839.470909,871.997226 L694.576364,871.997226 C686.509091,871.997226 679.865455,865.356449 679.865455,857.292649 L679.865455,857.292649 C679.865455,849.228849 686.509091,842.588072 694.576364,842.588072 L839.470909,842.588072 C847.538182,842.588072 854.181818,849.228849 854.181818,857.292649 L854.181818,857.292649 C854.181818,865.356449 847.538182,871.997226 839.470909,871.997226 L839.470909,871.997226 Z" id="XMLID_49_" fill="#3A2F2C"></path>
                <path d="M825.867273,912.158114 L708.812727,912.158114 C700.587273,912.158114 693.943636,905.517337 693.943636,897.295423 L693.943636,897.295423 C693.943636,889.073509 700.587273,882.432732 708.812727,882.432732 L825.867273,882.432732 C834.092727,882.432732 840.736364,889.073509 840.736364,897.295423 L840.736364,897.295423 C840.736364,905.517337 834.092727,912.158114 825.867273,912.158114 L825.867273,912.158114 Z" id="XMLID_50_" fill="#3A2F2C"></path>
                <path d="M723.365455,921.644938 C741.556364,957.220527 794.230909,961.17337 812.421818,921.644938 C811.947273,920.854369 723.365455,921.644938 723.365455,921.644938 L723.365455,921.644938 Z" id="XMLID_51_" fill="#3A2F2C"></path>
                <path d="M674.961818,597.828017 L692.994545,614.746186 L677.176364,688.110957 L674.961818,597.828017 Z" id="XMLID_2_" fill="#E6563F"></path>
                <path d="M682.238182,787.40638 L711.027273,730.011096 L716.405455,765.112344 L682.238182,787.40638 Z" id="XMLID_65_" fill="#E6563F"></path>
                <path d="M825.867273,713.092926 L874.270909,736.651872 L832.669091,664.710125 L825.867273,713.092926 Z" id="XMLID_66_" fill="#E6563F"></path>
                <path d="M641.427273,532.68516 L559.963636,533.159501 L689.514545,602.729542 L677.018182,584.546463 C667.369091,574.585298 659.46,563.20111 653.607273,550.552011 L641.427273,532.68516 L641.427273,532.68516 Z" id="Shape" fill="#F1AA4E"></path>
                <path d="M959.056364,408.09154 L811.314545,387.062413 C837.414545,397.972261 858.927273,417.736477 872.214545,442.560333 L915.872727,475.447989 L959.056364,408.09154 L959.056364,408.09154 Z" id="Shape" fill="#F3EFD9"></path>
                <path d="M773.667273,378.049931 L774.616364,377.417476 L719.252727,361.606103 L696.316364,398.604716 C715.772727,385.481276 739.183636,377.733703 764.492727,377.733703 C767.498182,377.733703 770.661818,377.891817 773.667273,378.049931 L773.667273,378.049931 Z" id="Shape" fill="#F1AA4E"></path>
                <path d="M687.932727,404.771151 L715.456364,359.550624 L584.481818,384.848821 L652.5,451.414702 C660.409091,433.073509 672.589091,417.104022 687.932727,404.771151 L687.932727,404.771151 Z" id="Shape" fill="#798F90"></path>
                <path d="M650.443636,456.632455 L581.792727,387.694868 L645.698182,527.309293 C643.641818,518.454924 642.534545,509.126214 642.534545,499.63939 C642.534545,484.460472 645.381818,469.914008 650.443636,456.632455 L650.443636,456.632455 Z" id="Shape" fill="#F3EFD9"></path>
                <g id="Group" transform="translate(834.618182, 451.624133)">
                    <path d="M73.82,23.8238558 L42.0254545,0.264909847 C46.2963636,10.2260749 49.3018182,20.8196949 50.7254545,32.0457698 L73.82,23.8238558 L73.82,23.8238558 Z" id="Shape" fill="#798E8F"></path>
                    <path d="M9.28181818,140.511789 L0.107272727,206.919556 L42.1836364,284.711512 L16.4,133.871012 C14.0272727,136.242718 11.6545455,138.456311 9.28181818,140.511789 L9.28181818,140.511789 Z" id="Shape" fill="#38B3C2"></path>
                    <path d="M38.3872727,103.67129 L40.1272727,113.474341 L78.5654545,26.1955617 L51.2,35.998613 C51.5163636,39.9514563 51.8327273,44.0624133 51.8327273,48.0152566 C51.8327273,68.0957004 46.9290909,87.0693481 38.3872727,103.67129 L38.3872727,103.67129 Z" id="Shape" fill="#38B3C2"></path>
                    <path d="M60.0581818,199.01387 L34.7490909,110.153953 C34.1163636,111.260749 33.4836364,112.367545 32.6927273,113.474341 L25.2581818,125.807212 L60.0581818,199.01387 L60.0581818,199.01387 Z" id="Shape" fill="#F3EFD9"></path>
                </g>
                <g id="XMLID_60_"></g>
                <path d="M764.650909,383.900139 C700.745455,383.900139 648.861818,435.761442 648.861818,499.63939 C648.861818,537.902913 667.369091,571.739251 696,592.926491 L725.421818,794.047157 L736.02,794.047157 L709.761818,592.294036 L733.172727,547.705964 C717.354545,537.428571 707.072727,519.719834 707.072727,499.63939 C707.072727,468.016644 732.856364,442.244105 764.492727,442.244105 C796.129091,442.244105 821.912727,468.016644 821.912727,499.63939 C821.912727,518.929265 812.421818,536.005548 797.710909,546.441054 L821.754545,592.926491 L796.92,794.047157 L809.574545,794.20527 L834.567273,592.926491 C862.249091,571.739251 880.44,537.270458 880.44,499.63939 C880.44,435.761442 828.556364,383.900139 764.650909,383.900139 L764.650909,383.900139 Z" id="Shape" fill="#F3EFD9"></path>
            </g>
        </g>
    </g>
</svg>